<?xml version="1.0" encoding="UTF-8"?>
<svg width="170px" height="30px" viewBox="0 0 170 30" version="1.1" xmlns="http://www.w3.org/2000/svg" xmlns:xlink="http://www.w3.org/1999/xlink">
    <!-- Generator: Sketch 44.1 (41455) - http://www.bohemiancoding.com/sketch -->
    <title>Artboard</title>
    <desc>Created with Sketch.</desc>
    <defs></defs>
    <g id="Page-1" stroke="none" stroke-width="1" fill="none" fill-rule="evenodd">
        <g id="Artboard" fill="#000000">
            <path d="M18.5234375,13.5976562 C18.5234375,14.3085973 18.4355478,14.9082007 18.2597656,15.3964844 C18.0839835,15.8847681 17.8398453,16.2890609 17.5273438,16.609375 C17.2148422,16.9296891 16.8378928,17.1777335 16.3964844,17.3535156 C15.9550759,17.5292978 15.4687527,17.6601558 14.9375,17.7460938 C14.4062473,17.8320317 13.8378937,17.8828124 13.2324219,17.8984375 C12.6269501,17.9140626 12.0039095,17.921875 11.3632812,17.921875 L7.87109375,17.921875 L7.87109375,21.109375 C7.87109375,21.3359386 7.84179717,21.5410147 7.78320312,21.7246094 C7.72460908,21.908204 7.60156344,22 7.4140625,22 C7.18749887,22 7.04101596,21.9121103 6.97460938,21.7363281 C6.90820279,21.560546 6.875,21.3515637 6.875,21.109375 L6.875,9.37890625 C6.875,9.26171816 6.88476553,9.17382842 6.90429688,9.11523438 C6.92382822,9.05664033 6.95703102,9.01562512 7.00390625,8.9921875 C7.05078148,8.96874988 7.11132775,8.95507814 7.18554688,8.95117188 C7.259766,8.94726561 7.35546816,8.9453125 7.47265625,8.9453125 L11.3632812,8.9453125 C12.0742223,8.9453125 12.7441375,8.96484355 13.3730469,9.00390625 C14.0019563,9.04296895 14.5820286,9.12304627 15.1132812,9.24414062 C15.6445339,9.36523498 16.1210916,9.53124895 16.5429688,9.7421875 C16.9648459,9.95312605 17.3222642,10.2324201 17.6152344,10.5800781 C17.9082046,10.9277361 18.1328117,11.3476538 18.2890625,11.8398438 C18.4453133,12.3320337 18.5234375,12.9179654 18.5234375,13.5976562 Z M17.5273438,13.5976562 C17.5273438,12.7851522 17.4042981,12.1250025 17.1582031,11.6171875 C16.9121081,11.1093725 16.5371119,10.7148452 16.0332031,10.4335937 C15.5292944,10.1523423 14.8906289,9.96289111 14.1171875,9.86523437 C13.3437461,9.76757764 12.4257866,9.71875 11.3632812,9.71875 L7.87109375,9.71875 L7.87109375,17.1953125 L11.3632812,17.1953125 C12.4257866,17.1953125 13.3456992,17.1621097 14.1230469,17.0957031 C14.9003945,17.0292965 15.5410131,16.8730481 16.0449219,16.6269531 C16.5488306,16.3808581 16.9218738,16.0195336 17.1640625,15.5429687 C17.4062512,15.0664039 17.5273438,14.4179729 17.5273438,13.5976562 Z M35.5234375,21.6445312 C35.5234375,21.7617193 35.5039064,21.847656 35.4648438,21.9023438 C35.4257811,21.9570315 35.3730472,21.9960936 35.3066406,22.0195312 C35.240234,22.0429689 35.1601567,22.0546875 35.0664062,22.0546875 L23.8046875,22.0546875 C23.7265621,22.0546875 23.6679689,22.0507813 23.6289062,22.0429688 C23.5898436,22.0351562 23.560547,22.0156252 23.5410156,21.984375 C23.5214843,21.9531248 23.5097656,21.9121096 23.5058594,21.8613281 C23.5019531,21.8105466 23.5,21.7382817 23.5,21.6445312 L23.5,9.55078125 C23.5,9.43359316 23.5019531,9.3398441 23.5058594,9.26953125 C23.5097656,9.1992184 23.5234374,9.14453145 23.546875,9.10546875 C23.5703126,9.06640605 23.6113278,9.03906258 23.6699219,9.0234375 C23.7285159,9.00781242 23.8164057,9 23.9335938,9 L34.9609375,9 C35.0625005,9 35.1542965,9.01171863 35.2363281,9.03515625 C35.3183598,9.05859387 35.3828123,9.09765598 35.4296875,9.15234375 C35.4765627,9.20703152 35.5,9.29296816 35.5,9.41015625 C35.5,9.50390672 35.4765627,9.57617162 35.4296875,9.62695312 C35.3828123,9.67773463 35.3183598,9.71484363 35.2363281,9.73828125 C35.1542965,9.76171887 35.0625005,9.7734375 34.9609375,9.7734375 L24.4960938,9.7734375 L24.4960938,14.90625 L32.6302326,14.9531978 C32.8021085,14.9531978 32.9466383,14.976635 33.0638264,15.0235103 C33.1810145,15.0703855 33.2396076,15.171947 33.2396076,15.3281978 C33.2396076,15.5000736 33.19078,15.6133537 33.0931233,15.6680415 C32.9954665,15.7227293 32.8685147,15.7500728 32.7122639,15.7500728 L24.4960938,15.703125 L24.4960938,21.28125 L34.984375,21.28125 C35.085938,21.28125 35.177734,21.2929686 35.2597656,21.3164062 C35.3417973,21.3398439 35.4062498,21.3769529 35.453125,21.4277344 C35.5000002,21.4785159 35.5234375,21.5507808 35.5234375,21.6445312 Z M54.1914062,20.5 L54.1914062,9.8359375 C54.1914062,9.71874941 54.1953125,9.6074224 54.203125,9.50195312 C54.2109375,9.39648385 54.2324217,9.30273479 54.2675781,9.22070312 C54.3027346,9.13867146 54.3535153,9.07226588 54.4199219,9.02148438 C54.4863285,8.97070287 54.5781244,8.9453125 54.6953125,8.9453125 C54.8984385,8.9453125 55.0312497,9.03320225 55.09375,9.20898438 C55.1562503,9.3847665 55.1875,9.59374879 55.1875,9.8359375 L55.1875,21.25 C55.1875,21.7500025 55.0546888,22 54.7890625,22 C54.6093741,22 54.3867201,21.8789075 54.1210938,21.6367188 L42.0390625,10.4453125 L42.0390625,21.1796875 C42.0390625,21.4062511 42.0058597,21.5996086 41.9394531,21.7597656 C41.8730465,21.9199227 41.7460947,22 41.5585938,22 C41.3320301,22 41.1894534,21.9199227 41.1308594,21.7597656 C41.0722653,21.5996086 41.0429688,21.4062511 41.0429688,21.1796875 L41.0429688,9.70703125 C41.0429688,9.47265508 41.0859371,9.29296937 41.171875,9.16796875 C41.2578129,9.04296813 41.3749993,8.98046875 41.5234375,8.98046875 C41.718751,8.98046875 41.9453112,9.09765508 42.203125,9.33203125 L54.1914062,20.5 Z M74.5898438,9.37890625 C74.5898438,9.53515703 74.5351568,9.6308592 74.4257812,9.66601562 C74.3164057,9.70117205 74.1757821,9.71875 74.0039062,9.71875 L67.453125,9.71875 L67.453125,21.1328125 C67.453125,21.2500006 67.4492188,21.3593745 67.4414062,21.4609375 C67.4335937,21.5625005 67.4121096,21.6542965 67.3769531,21.7363281 C67.3417967,21.8183598 67.2929691,21.8828123 67.2304688,21.9296875 C67.1679684,21.9765627 67.0781256,22 66.9609375,22 C66.7578115,22 66.6230472,21.9121103 66.5566406,21.7363281 C66.490234,21.560546 66.4570312,21.3593761 66.4570312,21.1328125 L66.4570312,9.71875 L59.8945312,9.71875 C59.7226554,9.71875 59.5761725,9.70117205 59.4550781,9.66601562 C59.3339838,9.6308592 59.2734375,9.53515703 59.2734375,9.37890625 C59.2734375,9.26171816 59.300781,9.17382842 59.3554688,9.11523438 C59.4101565,9.05664033 59.4785152,9.01562512 59.5605469,8.9921875 C59.6425785,8.96874988 59.7363276,8.95507814 59.8417969,8.95117188 C59.9472662,8.94726561 60.0468745,8.9453125 60.140625,8.9453125 L73.7460938,8.9453125 C73.8632818,8.9453125 73.9726557,8.94726561 74.0742188,8.95117188 C74.1757818,8.95507814 74.2636715,8.96874988 74.3378906,8.9921875 C74.4121097,9.01562512 74.472656,9.05664033 74.5195312,9.11523438 C74.5664065,9.17382842 74.5898438,9.26171816 74.5898438,9.37890625 Z M82.0898438,9.54296875 C82.2148444,9.31640512 82.3124996,9.16015668 82.3828125,9.07421875 C82.4531254,8.98828082 82.558593,8.9453125 82.6992188,8.9453125 C82.8085943,8.9453125 82.9042965,8.98632771 82.9863281,9.06835938 C83.0683598,9.15039104 83.1757806,9.30859258 83.3085938,9.54296875 L89.7773438,21.2148438 C89.8632817,21.3710945 89.90625,21.5234368 89.90625,21.671875 C89.90625,21.8125007 89.8671879,21.9218746 89.7890625,22 C89.7109371,22.0781254 89.617188,22.1171875 89.5078125,22.1171875 C89.398437,22.1171875 89.2910162,22.0800785 89.1855469,22.0058594 C89.0800776,21.9316403 88.9726568,21.796876 88.8632812,21.6015625 L86.8710938,17.9921875 L82.6992188,10.3175339 L76.5117188,21.6484375 C76.4257808,21.8125008 76.3261724,21.9316403 76.2128906,22.0058594 C76.0996088,22.0800785 75.9882818,22.1171875 75.8789062,22.1171875 C75.7460931,22.1171875 75.6484378,22.070313 75.5859375,21.9765625 C75.5234372,21.882812 75.4921875,21.7578133 75.4921875,21.6015625 C75.4921875,21.5390622 75.5058592,21.4765628 75.5332031,21.4140625 C75.560547,21.3515622 75.5937498,21.2812504 75.6328125,21.203125 L82.0898438,9.54296875 Z M93.0507812,15.4726562 C93.0507812,14.2539002 93.2363263,13.2168012 93.6074219,12.3613281 C93.9785175,11.5058551 94.5312463,10.8066433 95.265625,10.2636719 C96.0000037,9.72070041 96.9160101,9.32422 98.0136719,9.07421875 C99.1113336,8.8242175 100.386711,8.69921875 101.839844,8.69921875 C102.855474,8.69921875 103.839839,8.79101471 104.792969,8.97460937 C105.746099,9.15820404 106.714839,9.45312297 107.699219,9.859375 C107.824219,9.91406277 107.914062,9.98242146 107.96875,10.0644531 C108.023438,10.1464848 108.050781,10.2265621 108.050781,10.3046875 C108.050781,10.398438 108.015625,10.4804684 107.945312,10.5507812 C107.875,10.6210941 107.785157,10.65625 107.675781,10.65625 C107.644531,10.65625 107.570313,10.6367189 107.453125,10.5976562 C106.554683,10.2226544 105.625005,9.94140719 104.664062,9.75390625 C103.70312,9.56640531 102.761723,9.47265625 101.839844,9.47265625 C100.449212,9.47265625 99.2617237,9.58788947 98.2773438,9.81835937 C97.2929638,10.0488293 96.4863313,10.4082007 95.8574219,10.8964844 C95.2285125,11.3847681 94.7695327,12.0058556 94.4804688,12.7597656 C94.1914048,13.5136756 94.046875,14.4179635 94.046875,15.4726562 C94.046875,16.527349 94.1914048,17.4316369 94.4804688,18.1855469 C94.7695327,18.9394569 95.2285125,19.5605444 95.8574219,20.0488281 C96.4863313,20.5371118 97.2929638,20.8964832 98.2773438,21.1269531 C99.2617237,21.357423 100.449212,21.4726562 101.839844,21.4726562 C102.761723,21.4726562 103.70312,21.3789072 104.664062,21.1914062 C105.625005,21.0039053 106.554683,20.7226581 107.453125,20.3476562 C107.515625,20.3164061 107.585937,20.3007812 107.664062,20.3007812 C107.781251,20.3007812 107.876953,20.3359371 107.951172,20.40625 C108.025391,20.4765629 108.0625,20.5585933 108.0625,20.6523437 C108.0625,20.7304691 108.035157,20.8085934 107.980469,20.8867187 C107.925781,20.9648441 107.832032,21.0312497 107.699219,21.0859375 C106.707026,21.4921895 105.736333,21.7871085 104.787109,21.9707031 C103.837886,22.1542978 102.855474,22.2460937 101.839844,22.2460937 C100.386711,22.2460937 99.1113336,22.121095 98.0136719,21.8710937 C96.9160101,21.6210925 96.0000037,21.2246121 95.265625,20.6816406 C94.5312463,20.1386692 93.9785175,19.4394574 93.6074219,18.5839844 C93.2363263,17.7285113 93.0507812,16.6914123 93.0507812,15.4726562 Z M120.636732,6.3928052 L128.514106,11.8359364 L128.514106,11.8359364 C128.882298,12.0903512 129.036619,12.5584254 128.891931,12.9819325 L125.903942,21.7279293 C125.765673,22.1326489 125.385331,22.4046351 124.957644,22.4046351 L115.178875,22.4046351 L115.178875,22.4046351 C114.751188,22.4046351 114.370845,22.1326489 114.232577,21.7279293 L111.244587,12.9819325 C111.0999,12.5584254 111.25422,12.0903512 111.622413,11.8359364 L119.499786,6.3928052 L119.499786,6.3928052 C119.841904,6.15640773 120.294615,6.15640773 120.636732,6.3928052 L120.636732,6.3928052 Z M132.138675,22 L138.550781,22 C139.824225,22 140.943355,21.8925792 141.908203,21.6777344 C142.873052,21.4628896 143.679684,21.101565 144.328125,20.59375 C144.976566,20.085935 145.464842,19.4140667 145.792969,18.578125 C146.121095,17.7421833 146.285156,16.699225 146.285156,15.4492188 C146.285156,14.2304627 146.121095,13.2070354 145.792969,12.3789062 C145.464842,11.5507771 144.976566,10.8808619 144.328125,10.3691406 C143.679684,9.85741932 142.873052,9.49218859 141.908203,9.2734375 C140.943355,9.05468641 139.824225,8.9453125 138.550781,8.9453125 L132.000986,8.9453125 L132.000986,9.71875 L138.550781,9.71875 C139.824225,9.71875 140.890621,9.82812391 141.75,10.046875 C142.609379,10.2656261 143.300779,10.6074196 143.824219,11.0722656 C144.347659,11.5371117 144.722655,12.1308558 144.949219,12.8535156 C145.175782,13.5761755 145.289062,14.4414012 145.289062,15.4492187 C145.289062,16.4726614 145.175782,17.3496057 144.949219,18.0800781 C144.722655,18.8105505 144.347659,19.4082008 143.824219,19.8730469 C143.300779,20.3378929 142.609379,20.6796864 141.75,20.8984375 C140.890621,21.1171886 139.824225,21.2265625 138.550781,21.2265625 L132.138675,21.2265625 L132.138675,22 Z M163.636719,21.5898438 C163.636719,21.7070318 163.617188,21.7929685 163.578125,21.8476562 C163.539062,21.902344 163.486328,21.9414061 163.419922,21.9648438 C163.353515,21.9882814 163.273438,22 163.179688,22 L151.917969,22 C151.839843,22 151.78125,21.9960938 151.742188,21.9882812 C151.703125,21.9804687 151.673828,21.9609377 151.654297,21.9296875 C151.634766,21.8984373 151.623047,21.8574221 151.619141,21.8066406 C151.615234,21.7558591 151.613281,21.6835942 151.613281,21.5898438 L151.613281,9.49609375 C151.613281,9.37890566 151.615234,9.2851566 151.619141,9.21484375 C151.623047,9.1445309 151.636719,9.08984395 151.660156,9.05078125 C151.683594,9.01171855 151.724609,8.98437508 151.783203,8.96875 C151.841797,8.95312492 151.929687,8.9453125 152.046875,8.9453125 L163.074219,8.9453125 C163.175782,8.9453125 163.267578,8.95703113 163.349609,8.98046875 C163.431641,9.00390637 163.496094,9.04296848 163.542969,9.09765625 C163.589844,9.15234402 163.613281,9.23828066 163.613281,9.35546875 C163.613281,9.44921922 163.589844,9.52148412 163.542969,9.57226562 C163.496094,9.62304713 163.431641,9.66015613 163.349609,9.68359375 C163.267578,9.70703137 163.175782,9.71875 163.074219,9.71875 L152.609375,9.71875 L152.609375,14.8515625 L160.743514,14.8985103 C160.91539,14.8985103 161.05992,14.9219475 161.177108,14.9688228 C161.294296,15.015698 161.352889,15.1172595 161.352889,15.2735103 C161.352889,15.4453861 161.304061,15.5586662 161.206405,15.613354 C161.108748,15.6680418 160.981796,15.6953853 160.825545,15.6953853 L152.609375,15.6484375 L152.609375,21.2265625 L163.097656,21.2265625 C163.199219,21.2265625 163.291015,21.2382811 163.373047,21.2617188 C163.455079,21.2851564 163.519531,21.3222654 163.566406,21.3730469 C163.613281,21.4238284 163.636719,21.4960933 163.636719,21.5898438 Z" id="PENTACODE"></path>
        </g>
    </g>
</svg>