<?xml version="1.0" encoding="UTF-8"?>
<svg width="160px" height="25px" viewBox="0 0 160 25" version="1.1" xmlns="http://www.w3.org/2000/svg" xmlns:xlink="http://www.w3.org/1999/xlink">
    <!-- Generator: Sketch 63.1 (92452) - https://sketch.com -->
    <title>Artboard Copy 2</title>
    <desc>Created with Sketch.</desc>
    <g id="Artboard-Copy-2" stroke="none" stroke-width="1" fill="none" fill-rule="evenodd">
        <path d="M15.6466417,12.3499565 C15.6466417,13.052592 15.5587655,13.6451906 15.3830104,14.1277699 C15.2072554,14.6103493 14.9631549,15.009919 14.6507015,15.3264911 C14.3382481,15.6430631 13.9613568,15.8882098 13.5200164,16.0619384 C13.078676,16.2356669 12.5924278,16.3649963 12.061257,16.4499302 C11.5300862,16.5348642 10.9618202,16.5850517 10.3564417,16.6004942 C9.75106332,16.6159368 9.12811873,16.6236579 8.48758929,16.6236579 L4.99594018,16.6236579 L4.99594018,19.7739202 C4.99594018,19.9978371 4.96664812,20.2005174 4.90806311,20.3819672 C4.8494781,20.563417 4.72645142,20.6541406 4.53897939,20.6541406 C4.31245069,20.6541406 4.16599036,20.5672776 4.09959402,20.393549 C4.03319767,20.2198205 4,20.0132796 4,19.7739202 L4,8.18049164 C4,8.06467259 4.00976402,7.97780961 4.02929236,7.91990009 C4.04882069,7.86199056 4.08201837,7.82145451 4.12888638,7.7982907 C4.17575438,7.77512689 4.23629132,7.76161487 4.310499,7.75775423 C4.38470668,7.7538936 4.48039409,7.75196331 4.59756411,7.75196331 L8.48758929,7.75196331 C9.19842074,7.75196331 9.86823263,7.77126619 10.4970451,7.80987254 C11.1258575,7.84847889 11.7058404,7.92762072 12.2370112,8.0473004 C12.7681819,8.16698008 13.2446662,8.3310546 13.6664782,8.53952889 C14.0882903,8.74800317 14.4456535,9.02403443 14.7385785,9.36763093 C15.0315036,9.71122744 15.2560761,10.1262395 15.4123028,10.6126795 C15.5685295,11.0991195 15.6466417,11.678206 15.6466417,12.3499565 Z M14.6507015,12.3499565 C14.6507015,11.5469444 14.5276748,10.8945069 14.2816178,10.3926244 C14.0355607,9.89074183 13.6606223,9.50082356 13.1567912,9.22285785 C12.6529601,8.94489213 12.0143931,8.75765415 11.241071,8.66113828 C10.4677488,8.56462241 9.5499308,8.51636519 8.48758929,8.51636519 L4.99594018,8.51636519 L4.99594018,15.9055834 L8.48758929,15.9055834 C9.5499308,15.9055834 10.4697016,15.8727685 11.2469294,15.8071377 C12.0241572,15.7415069 12.6646771,15.5870839 13.1685081,15.3438639 C13.6723392,15.1006439 14.0453249,14.7435405 14.2874762,14.272543 C14.5296276,13.8015456 14.6507015,13.1606898 14.6507015,12.3499565 Z M18.9976874,20.248776 C18.9976874,20.364595 19.0172155,20.4495277 19.0562722,20.5035766 C19.0953288,20.5576255 19.1480546,20.5962312 19.2144509,20.6193951 C19.2808472,20.6425589 19.3609122,20.6541406 19.4546482,20.6541406 L30.7146308,20.6541406 C30.7927441,20.6541406 30.8513282,20.65028 30.8903849,20.6425587 C30.9294416,20.6348375 30.9587337,20.6155346 30.978262,20.5846495 C30.9977903,20.5537644 31.0095071,20.5132284 31.0134128,20.4630401 C31.0173185,20.4128519 31.0192713,20.3414312 31.0192713,20.248776 L31.0192713,8.29631011 C31.0192713,8.18049106 31.0173185,8.08783721 31.0134128,8.01834578 C31.0095071,7.94885436 30.9958375,7.89480628 30.9724035,7.85619993 C30.9489695,7.81759358 30.9079606,7.79056954 30.8493756,7.775127 C30.7907906,7.75968446 30.7029144,7.75196331 30.5857444,7.75196331 L19.5601007,7.75196331 C19.4585534,7.75196331 19.3667716,7.76354504 19.2847526,7.78670885 C19.2027335,7.80987266 19.138291,7.84847843 19.091423,7.90252732 C19.044555,7.95657621 19.0211213,8.0415089 19.0211213,8.15732795 C19.0211213,8.24998318 19.044555,8.32140386 19.091423,8.37159211 C19.138291,8.42178036 19.2027335,8.45845585 19.2847526,8.48161965 C19.3667716,8.50478346 19.4585534,8.51636519 19.5601007,8.51636519 L30.0233311,8.51636519 L30.0233311,13.5892141 L21.8904463,13.6356134 C21.7185969,13.6356134 21.5740894,13.6587768 21.4569194,13.7051045 C21.3397493,13.7514321 21.2811652,13.8518071 21.2811652,14.0062325 C21.2811652,14.1761004 21.3299853,14.2880571 21.427627,14.342106 C21.5252687,14.3961549 21.652201,14.423179 21.8084277,14.423179 L30.0233311,14.3767797 L30.0233311,19.8897387 L19.5366668,19.8897387 C19.4351195,19.8897387 19.3433377,19.9013204 19.2613187,19.9244842 C19.1792997,19.9476481 19.1148571,19.9843235 19.0679891,20.0345118 C19.0211211,20.0847 18.9976874,20.1561207 18.9976874,20.248776 Z M48.1182857,19.1716642 L48.1182857,8.63218366 C48.1182857,8.51636462 48.1221914,8.40633817 48.1300027,8.30210103 C48.137814,8.19786389 48.1592949,8.10521004 48.1944459,8.02413671 C48.2295969,7.94306338 48.2803698,7.87743357 48.3467661,7.82724531 C48.4131625,7.77705706 48.5049443,7.75196331 48.6221143,7.75196331 C48.825209,7.75196331 48.9579997,7.83882629 49.0204904,8.01255486 C49.0829811,8.18628343 49.1142259,8.3928243 49.1142259,8.63218366 L49.1142259,19.9129024 C49.1142259,20.4070637 48.9814352,20.6541406 48.7158499,20.6541406 C48.5361892,20.6541406 48.3135695,20.5344627 48.0479841,20.2951033 C47.8204934,20.0868117 47.6498755,19.9305931 47.5361301,19.8264473 C44.9653935,17.4726678 41.1092887,13.9419986 35.9678155,9.23443969 L35.149175,8.57704518 C34.8928989,8.21945621 35.014837,8.09555871 35.1007617,7.9720184 C35.1866864,7.84847808 35.3038547,7.78670885 35.45227,7.78670885 C35.6475534,7.78670885 35.8740787,7.90252616 36.1318527,8.13416425 L48.1182857,19.1716642 Z M68.3064906,8.18049164 C68.3064906,8.33491703 68.251812,8.42950117 68.1424534,8.46424688 C68.0330947,8.4989926 67.8924928,8.51636519 67.7206434,8.51636519 L61.1708721,8.51636519 L61.1708721,19.7970839 C61.1708721,19.912903 61.1669665,20.0209991 61.1591551,20.1213756 C61.1513438,20.2217521 61.129863,20.3124757 61.094712,20.393549 C61.059561,20.4746224 61.0107408,20.5383219 60.9482502,20.5846495 C60.8857595,20.6309771 60.7959305,20.6541406 60.6787605,20.6541406 C60.4756658,20.6541406 60.3409223,20.5672776 60.2745259,20.393549 C60.2081296,20.2198205 60.1749319,20.0210008 60.1749319,19.7970839 L60.1749319,8.51636519 L53.6134437,8.51636519 C53.4415943,8.51636519 53.295134,8.4989926 53.1740583,8.46424688 C53.0529826,8.42950117 52.9924457,8.33491703 52.9924457,8.18049164 C52.9924457,8.06467259 53.0197849,7.97780961 53.0744643,7.91990009 C53.1291436,7.86199056 53.1974918,7.82145451 53.2795108,7.7982907 C53.3615298,7.77512689 53.4552644,7.76161487 53.5607174,7.75775423 C53.6661704,7.7538936 53.7657634,7.75196331 53.8594995,7.75196331 L67.4628707,7.75196331 C67.5800407,7.75196331 67.6893977,7.7538936 67.7909451,7.75775423 C67.8924924,7.76161487 67.9803686,7.77512689 68.0545763,7.7982907 C68.128784,7.82145451 68.1893209,7.86199056 68.2361889,7.91990009 C68.2830569,7.97780961 68.3064906,8.06467259 68.3064906,8.18049164 Z M75.0788838,8.28858888 C75.2038652,8.06467205 75.3015054,7.91024897 75.3718074,7.82531501 C75.4421094,7.74038104 75.5475608,7.69791469 75.6881649,7.69791469 C75.7975235,7.69791469 75.893211,7.73845075 75.97523,7.81952408 C76.057249,7.90059741 76.1646532,8.05695078 76.2974459,8.28858888 L82.7651986,19.8241082 C82.8511233,19.9785336 82.894085,20.1290961 82.894085,20.2758003 C82.894085,20.4147831 82.8550289,20.5228793 82.7769156,20.600092 C82.6988022,20.6773047 82.6050676,20.7159104 82.4957089,20.7159104 C82.3863502,20.7159104 82.278946,20.679235 82.173493,20.6058829 C82.06804,20.5325308 81.9606357,20.3993409 81.851277,20.2063092 L79.8593967,16.6391004 L75.6881649,9.05410527 L69.5016188,20.2526366 C69.4156941,20.4147832 69.3161011,20.5325308 69.2028367,20.6058829 C69.0895724,20.679235 68.9782625,20.7159104 68.8689038,20.7159104 C68.7361112,20.7159104 68.6384709,20.6695835 68.5759803,20.5769283 C68.5134896,20.484273 68.4822447,20.3607346 68.4822447,20.2063092 C68.4822447,20.144539 68.4959144,20.0827698 68.523254,20.0209996 C68.5505937,19.9592295 68.5837914,19.8897391 68.622848,19.8125264 L75.0788838,8.28858888 Z M113.615456,5.17223963 L121.487726,10.5491259 C121.860042,10.8034234 122.016139,11.2754197 121.868855,11.7015575 L118.887795,20.3266649 C118.748512,20.729651 118.369031,21 117.942654,21 L108.160234,21 C107.733857,21 107.354376,20.729651 107.215094,20.3266649 L104.234034,11.7015575 C104.086749,11.2754197 104.242846,10.8034234 104.615162,10.5491259 L112.487432,5.17223963 C112.827558,4.93992856 113.275331,4.93992856 113.615456,5.17223963 Z M94.8258389,7.45469591 C95.8413124,7.45469591 96.8255258,7.54541947 97.7785087,7.72686931 C98.7314915,7.90831915 99.7000824,8.19979271 100.684311,8.60129874 C100.809292,8.65534763 100.899121,8.72290772 100.9538,8.80398106 C101.00848,8.88505439 101.035819,8.96419622 101.035819,9.04140891 C101.035819,9.13406415 101.000668,9.21513627 100.930366,9.2846277 C100.860064,9.35411912 100.770235,9.38886432 100.660877,9.38886432 C100.629631,9.38886432 100.555425,9.36956143 100.438255,9.33095508 C99.5399513,8.96033413 98.6104164,8.68237259 97.6496223,8.49706212 C96.6888281,8.31175164 95.7475764,8.21909779 94.8258389,8.21909779 C93.4354214,8.21909779 92.2481163,8.33298482 91.2638882,8.56076227 C90.27966,8.78853973 89.4731518,9.14371281 88.8443394,9.62629218 C88.2155269,10.1088715 87.7566179,10.7227033 87.4675985,11.4678058 C87.1785792,12.2129083 87.0340716,13.1066319 87.0340716,14.1490033 C87.0340716,15.1913748 87.1785792,16.0850983 87.4675985,16.8302009 C87.7566179,17.5753034 88.2155269,18.1891351 88.8443394,18.6717145 C89.4731518,19.1542938 90.27966,19.5094669 91.2638882,19.7372444 C92.2481163,19.9650218 93.4354214,20.0789089 94.8258389,20.0789089 C95.7475764,20.0789089 96.6888281,19.986255 97.6496223,19.8009445 C98.6104164,19.6156341 99.5399513,19.3376725 100.438255,18.9670516 C100.500745,18.9361665 100.571046,18.9207242 100.64916,18.9207242 C100.76633,18.9207242 100.862017,18.9554694 100.936225,19.0249608 C101.010433,19.0944522 101.047536,19.1755244 101.047536,19.2681796 C101.047536,19.3453923 101.020197,19.4226038 100.965517,19.4998165 C100.910838,19.5770292 100.817103,19.642659 100.684311,19.6967079 C99.6922711,20.098214 98.7217273,20.3896875 97.7726502,20.5711374 C96.823573,20.7525872 95.8413124,20.8433108 94.8258389,20.8433108 C93.3729307,20.8433108 92.0977495,20.7197723 91.000257,20.4726917 C89.9027644,20.225611 88.9868992,19.8337625 88.2526337,19.2971342 C87.5183683,18.760506 86.9657247,18.0694627 86.5946863,17.2239836 C86.2236479,16.3785046 86.0381315,15.3535214 86.0381315,14.1490033 C86.0381315,12.9444852 86.2236479,11.9195021 86.5946863,11.074023 C86.9657247,10.228544 87.5183683,9.5375007 88.2526337,9.00087245 C88.9868992,8.4642442 89.9027644,8.07239564 91.000257,7.82531501 C92.0977495,7.57823437 93.3729307,7.45469591 94.8258389,7.45469591 Z M113.658885,6.25938888 C113.318759,6.02707782 112.870987,6.02707782 112.530861,6.25938888 L112.530861,6.25938888 L105.726685,10.9067495 C105.35437,11.161047 105.198273,11.6330433 105.345557,12.0591811 L105.345557,12.0591811 L107.918641,19.5038912 C108.057924,19.9068773 108.437404,20.1772263 108.863782,20.1772263 L108.863782,20.1772263 L117.325964,20.1772263 C117.752341,20.1772263 118.131822,19.9068773 118.271105,19.5038912 L118.271105,19.5038912 L120.844189,12.0591811 C120.991473,11.6330433 120.835376,11.161047 120.463061,10.9067495 L120.463061,10.9067495 Z M131.779591,7.75196331 C133.052839,7.75196331 134.171796,7.86005946 135.136496,8.07625502 C136.101195,8.29245057 136.907704,8.65341452 137.556044,9.15915769 C138.204385,9.66490086 138.692586,10.3269898 139.020662,11.1454444 C139.348738,11.963899 139.512774,12.9753702 139.512774,14.1798883 C139.512774,15.4152914 139.348738,16.4460655 139.020662,17.2722413 C138.692586,18.0984172 138.204385,18.7624364 137.556044,19.264319 C136.907704,19.7662015 136.101195,20.1233049 135.136496,20.3356398 C134.171796,20.5479747 133.052839,20.6541406 131.779591,20.6541406 L125.368,20.654 L125.368474,19.9133421 L131.779591,19.9133421 C133.052839,19.9133421 134.11907,19.8052459 134.978317,19.5890504 C135.837564,19.3728548 136.528856,19.0350543 137.052216,18.5756388 C137.575575,18.1162232 137.950514,17.525555 138.177042,16.8036162 C138.403571,16.0816775 138.516834,15.214978 138.516834,14.2034916 C138.516834,13.2074478 138.403571,12.35233 138.177042,11.6381126 C137.950514,10.9238951 137.575575,10.3370874 137.052216,9.87767187 C136.528856,9.41825632 135.837564,9.08045584 134.978317,8.86426028 C134.11907,8.64806473 133.052839,8.53996857 131.779591,8.53996857 L125.230805,8.53996857 L125.23,7.751 L131.779591,7.75196331 Z M156,20.248776 C156,20.364595 155.980472,20.4495277 155.941415,20.5035766 C155.902359,20.5576255 155.849633,20.5962312 155.783237,20.6193951 C155.71684,20.6425589 155.636775,20.6541406 155.543039,20.6541406 L144.283057,20.6541406 C144.204943,20.6541406 144.146359,20.65028 144.107303,20.6425587 C144.068246,20.6348375 144.038954,20.6155346 144.019425,20.5846495 C143.999897,20.5537644 143.98818,20.5132284 143.984275,20.4630401 C143.980369,20.4128519 143.978416,20.3414312 143.978416,20.248776 L143.978416,8.29631011 C143.978416,8.18049106 143.980369,8.08783721 143.984275,8.01834578 C143.98818,7.94885436 144.00185,7.89480628 144.025284,7.85619993 C144.048718,7.81759358 144.089727,7.79056954 144.148312,7.775127 C144.206897,7.75968446 144.294773,7.75196331 144.411943,7.75196331 L155.437587,7.75196331 C155.539134,7.75196331 155.630916,7.76354504 155.712935,7.78670885 C155.794954,7.80987266 155.859396,7.84847843 155.906264,7.90252732 C155.953132,7.95657621 155.976566,8.0415089 155.976566,8.15732795 C155.976566,8.24998318 155.953132,8.32140386 155.906264,8.37159211 C155.859396,8.42178036 155.794954,8.45845585 155.712935,8.48161965 C155.630916,8.50478346 155.539134,8.51636519 155.437587,8.51636519 L144.974356,8.51636519 L144.974356,13.5892141 L153.107241,13.6356134 C153.279091,13.6356134 153.423598,13.6587768 153.540768,13.7051045 C153.657938,13.7514321 153.716522,13.8518071 153.716522,14.0062325 C153.716522,14.1761004 153.667702,14.2880571 153.57006,14.342106 C153.472419,14.3961549 153.345486,14.423179 153.18926,14.423179 L144.974356,14.3767797 L144.974356,19.8897387 L155.461021,19.8897387 C155.562568,19.8897387 155.65435,19.9013204 155.736369,19.9244842 C155.818388,19.9476481 155.88283,19.9843235 155.929698,20.0345118 C155.976566,20.0847 156,20.1561207 156,20.248776 Z" id="PENTACODE" fill="#000000"></path>
    </g>
</svg>