<?xml version="1.0" encoding="UTF-8"?>
<svg width="160px" height="21px" viewBox="0 0 160 21" version="1.1" xmlns="http://www.w3.org/2000/svg" xmlns:xlink="http://www.w3.org/1999/xlink">
    <!-- Generator: Sketch 63.1 (92452) - https://sketch.com -->
    <title>Artboard Copy 3</title>
    <desc>Created with Sketch.</desc>
    <g id="Artboard-Copy-3" stroke="none" stroke-width="1" fill="none" fill-rule="evenodd">
        <path d="M14.6843331,9.49385957 C14.6843331,10.1806604 14.5961725,10.7599041 14.4198487,11.2316079 C14.2435248,11.7033118 13.9986343,12.0938767 13.6851698,12.4033145 C13.3717052,12.7127522 12.9935943,12.9523742 12.5508256,13.1221876 C12.1080569,13.292001 11.620235,13.4184157 11.0873452,13.5014356 C10.5544555,13.5844555 9.98435034,13.6335119 9.37701276,13.6486064 C8.76967517,13.663701 8.14471458,13.6712481 7.50211223,13.6712481 L3.99916329,13.6712481 L3.99916329,16.7505156 C3.99916329,16.9693862 3.96977643,17.1674988 3.91100182,17.3448595 C3.85222722,17.5222201 3.7288024,17.6108991 3.54072366,17.6108991 C3.31346186,17.6108991 3.16652755,17.5259937 3.09991633,17.3561803 C3.03330511,17.1863669 3,16.9844807 3,16.7505156 L3,5.41835854 C3,5.30514961 3.00979562,5.22024419 3.02938716,5.16363972 C3.04897869,5.10703526 3.0822838,5.06741273 3.12930348,5.04477094 C3.17632317,5.02212916 3.23705602,5.00892165 3.31150385,5.00514802 C3.38595168,5.00137438 3.48194876,4.9994876 3.59949797,4.9994876 L7.50211223,4.9994876 C8.21524411,4.9994876 8.88722368,5.01835547 9.5180711,5.05609178 C10.1489185,5.09382809 10.7307784,5.17118636 11.2636681,5.28816892 C11.7965579,5.40515148 12.2745842,5.56552839 12.6977613,5.76930446 C13.1209385,5.97308053 13.4794582,6.24289109 13.7733312,6.57874425 C14.0672043,6.9145974 14.2925035,7.32025664 14.4492358,7.79573414 C14.6059681,8.27121163 14.6843331,8.83724778 14.6843331,9.49385957 Z M13.6892427,9.49385957 C13.6892427,8.70894433 13.5658179,8.07121027 13.3189646,7.58063825 C13.0721112,7.09006623 12.6959594,6.70893522 12.1904978,6.43723379 C11.6850362,6.16553237 11.0444026,5.98251401 10.2685778,5.88817324 C9.49275303,5.79383246 8.57196469,5.74666279 7.50618519,5.74666279 L4.00323625,5.74666279 L4.00323625,12.9693563 L7.50618519,12.9693563 C8.57196469,12.9693563 9.49471215,12.9372809 10.2744552,12.8731292 C11.0541983,12.8089774 11.696791,12.6580345 12.2022526,12.4202957 C12.7077143,12.182557 13.081907,11.8335013 13.324842,11.3731184 C13.567777,10.9127354 13.6892427,10.2863221 13.6892427,9.49385957 Z M50.3049403,5.23951526 C50.5087237,5.23951526 50.6419647,5.32542431 50.7046673,5.49724498 C50.7673699,5.66906565 50.7987207,5.87333827 50.7987207,6.11006898 L50.7987207,17.2669021 C50.7987207,17.7556365 50.6654797,18 50.3989937,18 C50.2187238,18 49.9953492,17.8816364 49.7288633,17.6449057 L37.6077316,6.70571099 L37.6077316,17.1981742 C37.6077316,17.419632 37.5744213,17.6086319 37.5077999,17.7651796 C37.4411784,17.9217273 37.3138157,18 37.1257079,18 C36.8984111,18 36.755373,17.9217273 36.6965893,17.7651796 C36.6378056,17.6086319 36.6084142,17.419632 36.6084142,17.1981742 L36.6084142,5.98406778 C36.6084142,5.75497355 36.6515216,5.57933728 36.7377377,5.45715369 C36.8239537,5.3349701 36.9415193,5.27387922 37.0904379,5.27387922 C37.2863835,5.27387922 37.5136769,5.38842462 37.772325,5.61751885 L49.7994033,16.5338043 L49.7994033,6.11006898 C49.7994033,5.99552186 49.8033222,5.88670374 49.81116,5.78361133 C49.8189978,5.68051893 49.8405515,5.58888261 49.8758217,5.50869963 C49.9110919,5.42851665 49.962037,5.36360759 50.0286585,5.31397051 C50.09528,5.26433343 50.187373,5.23951526 50.3049403,5.23951526 Z M31.0496533,4.9994876 C31.1515293,4.9994876 31.2436081,5.01080832 31.3258926,5.03345011 C31.408177,5.05609189 31.4728281,5.09382763 31.5198478,5.14665847 C31.5668675,5.1994893 31.590377,5.28250794 31.590377,5.39571686 C31.590377,5.48628401 31.5668675,5.55609513 31.5198478,5.60515233 C31.4728281,5.65420954 31.408177,5.69005849 31.3258926,5.71270028 C31.2436081,5.73534206 31.1515293,5.74666279 31.0496533,5.74666279 L20.5525613,5.74666279 L20.5525613,10.705189 L28.7117662,10.7505427 C28.8841717,10.7505427 29.0291469,10.7731841 29.1466961,10.8184677 C29.2642453,10.8637513 29.323019,10.9618642 29.323019,11.1128094 C29.323019,11.2788492 29.2740409,11.3882829 29.1760833,11.4411137 C29.0781256,11.4939445 28.9507825,11.5203595 28.7940502,11.5203595 L20.5525613,11.4750059 L20.5525613,16.8637239 L31.073163,16.8637239 C31.175039,16.8637239 31.2671179,16.8750447 31.3494023,16.8976864 C31.4316868,16.9203282 31.4963378,16.9561772 31.5433575,17.0052344 C31.5903772,17.0542916 31.6138867,17.1241027 31.6138867,17.2146698 C31.6138867,17.3278788 31.5942955,17.4108974 31.5551124,17.4637282 C31.5159293,17.5165591 31.463033,17.5542948 31.3964218,17.5769366 C31.3298105,17.5995784 31.2494864,17.6108991 31.1554471,17.6108991 L19.8590245,17.6108991 C19.7806583,17.6108991 19.7218846,17.6071255 19.6827015,17.5995783 C19.6435185,17.592031 19.6141316,17.5731631 19.5945401,17.5429741 C19.5749485,17.5127851 19.5631938,17.4731625 19.5592755,17.4241053 C19.5553572,17.3750481 19.5533981,17.305237 19.5533981,17.2146698 L19.5533981,5.5315669 C19.5533981,5.41835797 19.5553572,5.32779219 19.5592755,5.25986683 C19.5631938,5.19194147 19.5769077,5.13911143 19.6004175,5.10137512 C19.6239273,5.06363881 19.665069,5.03722379 19.7238436,5.02212927 C19.7826182,5.00703475 19.8707788,4.9994876 19.988328,4.9994876 L31.0496533,4.9994876 Z M70.0226928,5.41593931 C70.0226928,5.56688454 69.9678373,5.65933712 69.8581247,5.69329979 C69.7484121,5.72726247 69.6073552,5.74424356 69.4349497,5.74424356 L62.8639817,5.74424356 L62.8639817,16.770738 C62.8639817,16.8839469 62.8600635,16.989607 62.8522268,17.0877214 C62.8443902,17.1858358 62.8228399,17.2745148 62.7875751,17.3537611 C62.7523103,17.4330073 62.7033322,17.4952713 62.6406393,17.5405549 C62.5779464,17.5858384 62.4878267,17.6084799 62.3702775,17.6084799 C62.1665255,17.6084799 62.031346,17.5235745 61.9647347,17.3537611 C61.8981235,17.1839477 61.8648184,16.9896086 61.8648184,16.770738 L61.8648184,5.74424356 L55.2820956,5.74424356 C55.1096901,5.74424356 54.9627558,5.72726247 54.8412882,5.69329979 C54.7198207,5.65933712 54.6590879,5.56688454 54.6590879,5.41593931 C54.6590879,5.30273038 54.6865156,5.21782496 54.7413719,5.16122049 C54.7962282,5.10461603 54.8647976,5.0649935 54.947082,5.04235171 C55.0293664,5.01970993 55.1234044,5.00650242 55.2291987,5.00272879 C55.334993,4.99895515 55.4349083,4.99706837 55.5289477,4.99706837 L69.1763427,4.99706837 C69.2938919,4.99706837 69.4036029,4.99895515 69.5054789,5.00272879 C69.6073548,5.00650242 69.6955154,5.01970993 69.7699633,5.04235171 C69.8444111,5.0649935 69.9051439,5.10461603 69.9521636,5.16122049 C69.9991833,5.21782496 70.0226928,5.30273038 70.0226928,5.41593931 Z M76.8170032,5.52160044 C76.942389,5.30272985 77.0403452,5.15178688 77.1108747,5.068767 C77.1814043,4.98574712 77.287197,4.9442378 77.428256,4.9442378 C77.5379686,4.9442378 77.6339657,4.98386033 77.7162501,5.06310658 C77.7985346,5.14235283 77.9062864,5.29518259 78.0395088,5.52160044 L84.5281928,16.7971533 C84.6143955,16.9480985 84.6574963,17.0952679 84.6574963,17.2386659 C84.6574963,17.3745166 84.6183138,17.4801767 84.5399477,17.5556493 C84.4615815,17.6311219 84.3675436,17.6688577 84.257831,17.6688577 C84.1481184,17.6688577 84.0403665,17.6330087 83.9345723,17.5613097 C83.828778,17.4896107 83.7210261,17.3594224 83.6113135,17.1707409 L81.612987,13.6839233 L77.428256,6.26986503 L71.2216888,17.2160242 C71.135486,17.3745167 71.0355707,17.4896107 70.9219398,17.5613097 C70.8083089,17.6330087 70.6966388,17.6688577 70.5869262,17.6688577 C70.4537038,17.6688577 70.3557475,17.6235748 70.2930546,17.5330076 C70.2303617,17.4424405 70.1990157,17.3216861 70.1990157,17.1707409 C70.1990157,17.1103628 70.2127296,17.0499856 70.2401578,16.9896075 C70.2675859,16.9292294 70.300891,16.8613051 70.3400741,16.7858325 L76.8170032,5.52160044 Z M115.416626,3.16742637 L122.802237,8.10508824 C123.18219,8.35910684 123.34157,8.83840378 123.189394,9.2693709 L120.403564,17.1589257 C120.262414,17.5586669 119.884552,17.8259694 119.460622,17.8259694 L110.261061,17.8259694 C109.837131,17.8259694 109.459269,17.5586669 109.318119,17.1589257 L106.532288,9.2693709 C106.380112,8.83840378 106.539493,8.35910684 106.919446,8.10508824 L114.305057,3.16742637 C114.641453,2.94252818 115.08023,2.94252818 115.416626,3.16742637 Z M96.6278643,4.70650024 C97.6466241,4.70650024 98.6340227,4.79517924 99.5900896,4.97253989 C100.546157,5.14990054 101.517882,5.43480541 102.505295,5.82726302 C102.630681,5.88009386 102.720801,5.94613141 102.775657,6.02537766 C102.830514,6.1046239 102.857941,6.18198218 102.857941,6.2574548 C102.857941,6.34802194 102.822677,6.427267 102.752148,6.49519236 C102.681618,6.56311771 102.591498,6.59707988 102.481786,6.59707988 C102.450439,6.59707988 102.375993,6.57821201 102.258443,6.5404757 C101.357233,6.17820713 100.42469,5.90650978 99.4607861,5.7253755 C98.4968826,5.54424121 97.5525848,5.45367543 96.6278643,5.45367543 C95.232947,5.45367543 94.0417996,5.56499587 93.0543862,5.7876401 C92.0669728,6.01028432 91.2578546,6.35745316 90.6270071,6.82915703 C89.9961597,7.30086089 89.5357656,7.90085921 89.2458108,8.62916998 C88.9558561,9.35748075 88.8108809,10.2310632 88.8108809,11.2499436 C88.8108809,12.2688239 88.9558561,13.1424064 89.2458108,13.8707171 C89.5357656,14.5990279 89.9961597,15.1990262 90.6270071,15.6707301 C91.2578546,16.142434 92.0669728,16.4896028 93.0543862,16.712247 C94.0417996,16.9348912 95.232947,17.0462117 96.6278643,17.0462117 C97.5525848,17.0462117 98.4968826,16.9556459 99.4607861,16.7745116 C100.42469,16.5933773 101.357233,16.32168 102.258443,15.9594114 C102.321136,15.9292224 102.391665,15.9141281 102.470031,15.9141281 C102.58758,15.9141281 102.683577,15.9480902 102.758025,16.0160156 C102.832473,16.083941 102.869696,16.163186 102.869696,16.2537532 C102.869696,16.3292258 102.842268,16.4046973 102.787412,16.4801699 C102.732556,16.5556425 102.638518,16.6197933 102.505295,16.6726241 C101.510045,17.0650817 100.536361,17.3499866 99.5842122,17.5273472 C98.6320636,17.7047079 97.6466241,17.7933869 96.6278643,17.7933869 C95.1702541,17.7933869 93.8909461,17.6726325 92.7899018,17.4311201 C91.6888575,17.1896077 90.7700283,16.8065899 90.0333866,16.2820552 C89.2967449,15.7575205 88.7423128,15.0820507 88.3700736,14.2556256 C87.9978344,13.4292004 87.8117176,12.4273164 87.8117176,11.2499436 C87.8117176,10.0725707 87.9978344,9.07068672 88.3700736,8.24426155 C88.7423128,7.41783638 89.2967449,6.74236657 90.0333866,6.21783187 C90.7700283,5.69329717 91.6888575,5.31027938 92.7899018,5.068767 C93.8909461,4.82725462 95.1702541,4.70650024 96.6278643,4.70650024 Z M115.413792,4.14027735 C115.078697,3.91789604 114.642986,3.91789604 114.307891,4.14027735 L114.307891,4.14027735 L107.878882,8.40679732 C107.496287,8.66070125 107.335774,9.14253398 107.489667,9.57515786 L107.489667,9.57515786 L109.906841,16.370331 C110.048633,16.7689399 110.42593,17.0351845 110.849007,17.0351845 L110.849007,17.0351845 L118.872676,17.0351845 C119.295753,17.0351845 119.67305,16.7689399 119.814842,16.370331 L119.814842,16.370331 L122.232016,9.57515786 C122.385908,9.14253398 122.225396,8.66070125 121.8428,8.40679732 L121.8428,8.40679732 Z M133.701208,4.99706837 C134.978576,4.99706837 136.101154,5.10272845 137.068976,5.31405178 C138.036798,5.52537511 138.845916,5.87820431 139.496355,6.37254997 C140.146794,6.86689562 140.636575,7.51406361 140.965713,8.31407337 C141.294851,9.11408313 141.459417,10.1027596 141.459417,11.2801325 C141.459417,12.4876944 141.294851,13.4952387 140.965713,14.3027957 C140.636575,15.1103527 140.146794,15.7594075 139.496355,16.2499795 C138.845916,16.7405516 138.036798,17.0896072 137.068976,17.2971569 C136.101154,17.5047066 134.978576,17.6084799 133.701208,17.6084799 L127.269,17.608 L127.269343,16.8843761 L133.701208,16.8843761 C134.978576,16.8843761 136.048258,16.7787161 136.910286,16.5673927 C137.772313,16.3560694 138.465843,16.0258816 138.990896,15.5768196 C139.515949,15.1277575 139.892101,14.5504006 140.119363,13.8447316 C140.346625,13.1390626 140.460254,12.2918952 140.460254,11.3032039 C140.460254,10.3296071 140.346625,9.49376041 140.119363,8.79563869 C139.892101,8.09751697 139.515949,7.52393367 138.990896,7.07487159 C138.465843,6.62580951 137.772313,6.29562175 136.910286,6.08429842 C136.048258,5.87297509 134.978576,5.76731501 133.701208,5.76731501 L127.131229,5.76731501 L127.131,4.997 L133.701208,4.99706837 Z M158,17.2122506 C158,17.3254595 157.980409,17.4084782 157.941226,17.461309 C157.902043,17.5141398 157.849146,17.5518756 157.782535,17.5745174 C157.715924,17.5971592 157.6356,17.6084799 157.54156,17.6084799 L146.245138,17.6084799 C146.166772,17.6084799 146.107998,17.6047063 146.068815,17.5971591 C146.029632,17.5896118 146.000245,17.5707439 145.980653,17.5405549 C145.961062,17.5103658 145.949307,17.4707433 145.945389,17.4216861 C145.94147,17.3726289 145.939511,17.3028178 145.939511,17.2122506 L145.939511,5.52914767 C145.939511,5.41593874 145.94147,5.32537296 145.945389,5.2574476 C145.949307,5.18952224 145.963021,5.1366922 145.986531,5.09895589 C146.010041,5.06121958 146.051182,5.03480456 146.109957,5.01971004 C146.168731,5.00461552 146.256892,4.99706837 146.374441,4.99706837 L157.435767,4.99706837 C157.537643,4.99706837 157.629721,5.00838909 157.712006,5.03103088 C157.79429,5.05367266 157.858941,5.09140841 157.905961,5.14423924 C157.952981,5.19707007 157.97649,5.28008871 157.97649,5.39329763 C157.97649,5.48386478 157.952981,5.5536759 157.905961,5.6027331 C157.858941,5.65179031 157.79429,5.68763926 157.712006,5.71028105 C157.629721,5.73292283 157.537643,5.74424356 157.435767,5.74424356 L146.938675,5.74424356 L146.938675,10.7027698 L155.09788,10.7481235 C155.270285,10.7481235 155.41526,10.7707649 155.532809,10.8160485 C155.650359,10.861332 155.709132,10.959445 155.709132,11.1103902 C155.709132,11.27643 155.660154,11.3858636 155.562197,11.4386945 C155.464239,11.4915253 155.336896,11.5179403 155.180164,11.5179403 L146.938675,11.4725867 L146.938675,16.8613047 L157.459276,16.8613047 C157.561152,16.8613047 157.653231,16.8726254 157.735516,16.8952672 C157.8178,16.917909 157.882451,16.9537579 157.929471,17.0028152 C157.976491,17.0518724 158,17.1216835 158,17.2122506 Z" id="PENTACODE" fill="#000000"></path>
    </g>
</svg>